<svg xmlns="http://www.w3.org/2000/svg" version="1.1" xmlns:xlink="http://www.w3.org/1999/xlink" xmlns:svgjs="http://svgjs.dev/svgjs" width="1500" height="1049" viewBox="0 0 1500 1049"><g transform="matrix(1,0,0,1,-0.9090909090909918,-0.508442459992466)"><svg viewBox="0 0 396 277" data-background-color="#ffffff" preserveAspectRatio="xMidYMid meet" height="1049" width="1500" xmlns="http://www.w3.org/2000/svg" xmlns:xlink="http://www.w3.org/1999/xlink"><g id="tight-bounds" transform="matrix(1,0,0,1,0.2400000000000091,0.1342598297596851)"><svg viewBox="0 0 395.52 276.73148034048063" height="276.73148034048063" width="395.52"><g><svg viewBox="0 0 395.52 276.73148034048063" height="276.73148034048063" width="395.52"><g transform="matrix(1,0,0,1,0,143.0178786746635)"><svg viewBox="0 0 395.52 133.71360166581715" height="133.71360166581715" width="395.52"><g id="textblocktransform"><svg viewBox="0 0 395.52 133.71360166581715" height="133.71360166581715" width="395.52" id="textblock"><g><svg viewBox="0 0 395.52 133.71360166581715" height="133.71360166581715" width="395.52"><g transform="matrix(1,0,0,1,0,0)"><svg width="395.52" viewBox="0.5895499999999991 -13.814071490624656 114.77560000000001 38.80224149062466" height="133.71360166581715" data-palette-color="#ff7324"><path d="M14.086-3.761l-5.121-2.192 0.944-2.206 7.465 3.195-8.026 18.754 5.112 2.188-0.944 2.206-12.926-5.532 0.944-2.206 5.47 2.341zM17.818-9.789c-0.533-0.228-0.905-0.605-1.115-1.13-0.21-0.525-0.194-1.073 0.05-1.643 0.247-0.576 0.626-0.954 1.138-1.133 0.512-0.18 1.035-0.155 1.568 0.072 0.527 0.226 0.891 0.57 1.092 1.033 0.204 0.472 0.18 1.002-0.072 1.59-0.252 0.588-0.628 0.993-1.128 1.214-0.494 0.223-1.005 0.222-1.533-0.003zM33.772 7.18c-2.66-1.255-4.507-2.668-5.542-4.238-1.028-1.569-1.285-3.591-0.77-6.065 0.516-2.48 1.773-4.231 3.77-5.252 1.99-1.022 4.333-1.253 7.028-0.691 2.696 0.561 5.335 1.618 7.92 3.171v0l-1.155 2.262c-2.402-1.481-4.693-2.448-6.873-2.902-2.18-0.454-3.943-0.341-5.29 0.339-1.355 0.685-2.215 1.905-2.581 3.66-0.364 1.749-0.172 3.178 0.578 4.288 0.751 1.103 2.453 2.315 5.106 3.637 2.648 1.314 4.472 2.705 5.474 4.174 1.002 1.468 1.224 3.541 0.667 6.217-0.559 2.682-1.9 4.61-4.023 5.781-2.125 1.178-4.61 1.471-7.456 0.878v0c-2.134-0.444-4.735-1.459-7.803-3.044v0l1.106-2.273c3.016 1.541 5.496 2.513 7.441 2.919 1.938 0.404 3.646 0.198 5.124-0.619 1.479-0.822 2.42-2.203 2.824-4.141 0.405-1.945 0.248-3.465-0.47-4.562-0.718-1.096-2.41-2.276-5.075-3.539zM63.522 2.1v0l2.879 0.09c-2.353 3.541-5.04 7.011-8.062 10.412v0c1.897 2.875 4.442 7.003 7.633 12.386v0l-2.878-0.091c-2.428-4.239-4.635-7.847-6.623-10.823v0l-3.371 0.323-0.321 10.175-2.539-0.08 1.004-31.854 2.539 0.08-0.611 19.381 3.134-0.382c2.365-2.874 4.771-6.079 7.216-9.617zM72.713 12.565c-1.261-7.738 1.126-12.098 7.159-13.081 6.034-0.983 9.681 2.394 10.942 10.132 1.261 7.738-1.126 12.098-7.159 13.082-6.034 0.983-9.681-2.394-10.942-10.133zM80.274 1.951c-4.231 0.689-5.85 4.081-4.857 10.174 0.994 6.1 3.606 8.805 7.837 8.115 4.231-0.689 5.849-4.084 4.856-10.183-0.993-6.093-3.605-8.795-7.836-8.106zM98.875-2.845l-4.255 1.493-0.795-2.265 6.653-2.333 1.014 2.59c0.757-0.944 1.904-2.024 3.442-3.242 1.537-1.217 2.952-2.12 4.243-2.706v0l0.936 2.67c-1.206 0.529-2.635 1.369-4.287 2.521-1.643 1.156-2.823 2.163-3.539 3.022v0l5.037 14.362 7.247-2.542 0.794 2.265-13.994 4.908-0.794-2.265 4.255-1.492z" opacity="1" transform="matrix(1,0,0,1,0,0)" fill="#ff7324" class="wordmark-text-0" data-fill-palette-color="primary" id="text-0"></path></svg></g></svg></g></svg></g></svg></g><g transform="matrix(1,0,0,1,128.66501253013658,0)"><svg viewBox="0 0 138.18997493972682 133.71360166581715" height="133.71360166581715" width="138.18997493972682"><g><svg xmlns="http://www.w3.org/2000/svg" xmlns:xlink="http://www.w3.org/1999/xlink" version="1.1" x="0" y="0" viewBox="2.1999999999999993 3.6000000000000107 95.7 92.59999999999998" enable-background="new 0 0 100 100" xml:space="preserve" height="133.71360166581715" width="138.18997493972682" class="icon-icon-0" data-fill-palette-color="accent" id="icon-0"><path d="M89.5 58.9l2.2-2.6c1.1-1.3 1.7-2.9 1.7-4.5l0.1-11 0-3c0-0.6-0.3-1.2-0.8-1.6-2.7-2.2-5.6-3.7-6.1-4-0.1 0-0.1-0.1-0.1-0.2l0-1.8c0.3-0.6 0.4-1.1 0.5-1.7 0.1 0 0.1 0.1 0.2 0.1 0.2 0 0.6-0.3 0.9-1.5 0.4-1.3 0.1-1.7-0.2-1.8 1-4.8-1.3-5-1.3-5s-0.3-0.7-1.2-1.2c-0.5-0.3-1.2-0.6-2.1-0.6-0.1 0-0.3 0-0.4 0-0.4 0-0.7 0.1-1 0.2l0 0c-0.4 0.1-0.8 0.3-1.1 0.6-0.4 0.3-0.8 0.6-1.2 1-0.6 0.6-1 1.3-1.3 2.2C78 23.2 78 24 78.3 24.9c0 0-0.1 0-0.1 0-0.4 0-0.8 0.3-0.4 1.8 0.3 1.2 0.6 1.5 0.9 1.5 0.1 0.7 0.3 1.4 0.7 2.1l0 1.5c0 0.1 0 0.1-0.1 0.2-0.6 0.3-3.5 1.7-6.2 3.9-0.5 0.4-0.8 1-0.8 1.6l0 3-0.1 11.1c0 1.6 0.6 3.2 1.6 4.5l2.2 2.6 1.8 24.7h-6.3v-7.6H55.1l2.3-27.5 2.5-2.9c1.2-1.4 1.9-3.2 1.9-5l0.1-12.2 0-3.3c0-0.7-0.3-1.4-0.8-1.8-3-2.5-6.1-4.1-6.8-4.4-0.1 0-0.1-0.1-0.1-0.2l0-2c0.3-0.6 0.5-1.3 0.6-1.9 0.1 0 0.1 0.1 0.2 0.1 0.3 0 0.6-0.3 1-1.7 0.4-1.4 0.2-1.9-0.2-2 1.1-5.3-1.4-5.5-1.4-5.5s-0.4-0.7-1.4-1.3c-0.6-0.3-1.4-0.6-2.4-0.6-0.2 0-0.3 0-0.5 0-0.4 0-0.8 0.1-1.1 0.2l0 0c-0.5 0.2-0.9 0.4-1.3 0.6-0.5 0.3-0.9 0.6-1.3 1.1-0.6 0.6-1.2 1.4-1.4 2.4-0.2 0.9-0.2 1.8 0.1 2.7 0 0-0.1 0-0.1 0-0.4 0-0.9 0.3-0.4 2 0.4 1.3 0.7 1.7 1 1.7 0.1 0.7 0.3 1.6 0.8 2.3l0 1.7c0 0.1 0 0.2-0.1 0.2-0.6 0.3-3.9 1.9-6.8 4.3-0.5 0.4-0.9 1.1-0.9 1.8l0 3.3-0.1 12.3c0 1.8 0.6 3.6 1.8 5l2.5 2.9 2 27.6H28.4v7.3h-6.7l2-24.6 2.2-2.6c1.1-1.3 1.7-2.9 1.7-4.5l0.1-11 0-3c0-0.6-0.3-1.2-0.8-1.6-2.7-2.2-5.6-3.7-6.1-4-0.1 0-0.1-0.1-0.1-0.2l0-1.8c0.3-0.6 0.4-1.1 0.5-1.7 0.1 0 0.1 0.1 0.2 0.1 0.2 0 0.6-0.3 0.9-1.5 0.4-1.3 0.1-1.7-0.2-1.8 1-4.8-1.3-5-1.3-5s-0.3-0.7-1.2-1.2c-0.5-0.3-1.2-0.6-2.1-0.6-0.1 0-0.3 0-0.4 0-0.4 0-0.7 0.1-1 0.2l0 0c-0.4 0.1-0.8 0.3-1.1 0.6-0.4 0.3-0.8 0.6-1.2 1-0.6 0.6-1 1.3-1.3 2.2-0.2 0.8-0.2 1.6 0.1 2.5 0 0-0.1 0-0.1 0-0.4 0-0.8 0.3-0.4 1.8 0.3 1.2 0.6 1.5 0.9 1.5 0.1 0.7 0.3 1.4 0.7 2.1l0 1.5c0 0.1 0 0.1-0.1 0.2-0.6 0.3-3.5 1.7-6.2 3.9-0.5 0.4-0.8 1-0.8 1.6l0 3L6.6 51.3c0 1.6 0.6 3.2 1.6 4.5l2.2 2.6 1.8 24.7h-10v13.1h6v0h83.7v0h6V83.5H87.4L89.5 58.9zM50.1 20.5L50.1 20.5 50.1 20.5c0.4 0 3 0.2 0.6 3.5l1.1 10.1-1.8 2-1.8-2.1L49.5 24C47.1 20.6 49.7 20.5 50.1 20.5z" fill="#ff7324" data-fill-palette-color="accent"></path></svg></g></svg></g><g></g></svg></g><defs></defs></svg><rect width="395.52" height="276.73148034048063" fill="none" stroke="none" visibility="hidden"></rect></g></svg></g></svg>